<?xml version="1.0" encoding="UTF-8" standalone="no"?>
<svg
   xmlns:dc="http://purl.org/dc/elements/1.1/"
   xmlns:cc="http://creativecommons.org/ns#"
   xmlns:rdf="http://www.w3.org/1999/02/22-rdf-syntax-ns#"
   xmlns:svg="http://www.w3.org/2000/svg"
   xmlns="http://www.w3.org/2000/svg"
   xmlns:xlink="http://www.w3.org/1999/xlink"
   xmlns:sodipodi="http://sodipodi.sourceforge.net/DTD/sodipodi-0.dtd"
   xmlns:inkscape="http://www.inkscape.org/namespaces/inkscape"
   version="1.1"
   width="580"
   height="480"
   id="svg44"
   sodipodi:docname="icon_plain.svg"
   inkscape:version="1.0.1 (3bc2e813f5, 2020-09-07)"
   inkscape:export-filename="E:\dev\Custodian\art\icon_plain_2.png"
   inkscape:export-xdpi="244.132"
   inkscape:export-ydpi="244.132">
  <metadata
     id="metadata50">
    <rdf:RDF>
      <cc:Work
         rdf:about="">
        <dc:format>image/svg+xml</dc:format>
        <dc:type
           rdf:resource="http://purl.org/dc/dcmitype/StillImage" />
        <dc:title />
      </cc:Work>
    </rdf:RDF>
  </metadata>
  <defs
     id="defs48">
    <linearGradient
       id="linearGradient892"
       x1="0"
       y1="0"
       x2="0"
       y2="1">
      <stop
         offset="0"
         stop-color="#0f172a"
         id="stop888" />
      <stop
         offset="1"
         stop-color="#111827"
         id="stop890" />
    </linearGradient>
    <!-- Background gradient (teal → indigo) -->
    <linearGradient
       id="bgGrad"
       x1="0"
       y1="0"
       x2="1"
       y2="1">
      <stop
         offset="0"
         stop-color="#2dd4bf"
         id="stop3" />
      <stop
         offset="0.55"
         stop-color="#5b9df3"
         id="stop5" />
      <stop
         offset="1"
         stop-color="#6d28d9"
         id="stop7" />
    </linearGradient>
    <!-- Soft inner highlight for the tile -->
    <radialGradient
       id="tileGlow"
       cx="30%"
       cy="20%"
       r="75%">
      <stop
         offset="0"
         stop-color="#ffffff"
         stop-opacity="0.22"
         id="stop10" />
      <stop
         offset="0.45"
         stop-color="#ffffff"
         stop-opacity="0.08"
         id="stop12" />
      <stop
         offset="1"
         stop-color="#ffffff"
         stop-opacity="0"
         id="stop14" />
    </radialGradient>
    <!-- Drop shadow for the envelope group -->
    <filter
       id="softShadow"
       x="-20%"
       y="-20%"
       width="140%"
       height="160%">
      <feDropShadow
         dx="0"
         dy="10"
         stdDeviation="12"
         flood-color="#0b0f14"
         flood-opacity="0.45" />
    </filter>
    <!-- Tuxedo black (deep charcoal) -->
    <linearGradient
       id="lapelGrad"
       x1="0"
       y1="0"
       x2="0"
       y2="1">
      <stop
         offset="0"
         stop-color="#0f172a"
         id="stop18" />
      <stop
         offset="1"
         stop-color="#111827"
         id="stop20" />
    </linearGradient>
    <!-- White shirt gradient -->
    <linearGradient
       id="shirtGrad"
       x1="0"
       y1="0"
       x2="0"
       y2="1">
      <stop
         offset="0"
         stop-color="#ffffff"
         id="stop23" />
      <stop
         offset="1"
         stop-color="#e9eef6"
         id="stop25" />
    </linearGradient>
    <!-- Envelope edge stroke (subtle blue-gray) -->
    <linearGradient
       id="edgeGrad"
       x1="0"
       y1="0"
       x2="1"
       y2="1">
      <stop
         offset="0"
         stop-color="#0b1220"
         id="stop28" />
      <stop
         offset="1"
         stop-color="#1f2a44"
         id="stop30" />
    </linearGradient>
    <!-- Button highlight -->
    <radialGradient
       id="btnGrad"
       cx="35%"
       cy="35%"
       r="75%">
      <stop
         offset="0"
         stop-color="#ffffff"
         stop-opacity="0.8"
         id="stop33" />
      <stop
         offset="0.5"
         stop-color="#cfd8e3"
         stop-opacity="0.8"
         id="stop35" />
      <stop
         offset="1"
         stop-color="#0e1524"
         id="stop37" />
    </radialGradient>
    <!-- Sparkle gradient -->
    <linearGradient
       id="sparkleGrad"
       x1="0"
       y1="0"
       x2="1"
       y2="1">
      <stop
         offset="0"
         stop-color="#ffffff"
         id="stop40" />
      <stop
         offset="1"
         stop-color="#e6f0ff"
         id="stop42" />
    </linearGradient>
    <linearGradient
       inkscape:collect="always"
       xlink:href="#lapelGrad"
       id="linearGradient906"
       x1="10.403954"
       y1="845.83234"
       x2="10.403954"
       y2="884.27924"
       gradientTransform="scale(1.9223462,0.52019766)"
       gradientUnits="userSpaceOnUse" />
  </defs>
  <sodipodi:namedview
     pagecolor="#ffffff"
     bordercolor="#666666"
     borderopacity="1"
     objecttolerance="10"
     gridtolerance="48.1"
     guidetolerance="10"
     inkscape:pageopacity="0"
     inkscape:pageshadow="2"
     inkscape:window-width="2560"
     inkscape:window-height="1417"
     id="namedview46"
     showgrid="true"
     inkscape:lockguides="false"
     inkscape:snap-to-guides="false"
     inkscape:snap-others="false"
     inkscape:snap-grids="true"
     inkscape:zoom="1.3578973"
     inkscape:cx="123.45435"
     inkscape:cy="203.10169"
     inkscape:window-x="-8"
     inkscape:window-y="-8"
     inkscape:window-maximized="1"
     inkscape:current-layer="layer1"
     inkscape:document-rotation="0"
     inkscape:snap-bbox="true"
     inkscape:bbox-nodes="true"
     inkscape:object-nodes="false"
     inkscape:pagecheckerboard="true">
    <inkscape:grid
       type="xygrid"
       id="grid898"
       dotted="true"
       spacingx="10"
       spacingy="10"
       empspacing="1"
       originx="0"
       originy="0"
       empcolor="#d73fff"
       empopacity="0.1254902" />
  </sodipodi:namedview>
  <g
     inkscape:groupmode="layer"
     id="layer1"
     inkscape:label="BG">
    <rect
       x="10"
       y="10"
       width="560"
       height="460"
       rx="72"
       fill="url(#tileGlow)"
       id="rect56"
       inkscape:label="rect56"
       style="fill-opacity:1" />
    <rect
       x="10"
       y="10"
       width="560"
       height="460"
       rx="72"
       fill="url(#bgGrad)"
       id="rect54"
       inkscape:label="rect54" />
  </g>
  <g
     inkscape:groupmode="layer"
     id="layer2"
     inkscape:label="Layer 2"
     stroke-width="2"
     stroke="url(#edgeGrad)"
     vector-effect="non-scaling-stroke">
    <path
       id="path858"
       style="fill-opacity:1;stroke:#000000;stroke-width:1px;stroke-linecap:butt;stroke-linejoin:miter;stroke-opacity:1"
       inkscape:label="top"
       fill="url(#shirtGrad)"
       d="m 90.994802,30.5 c -70,0 -60,60 -60,60 l 159.999998,160 100,180 100,-180 160,-160 c 0,-60 -60,-60 -60,-60 z m 79.999998,20 80,40 v 40 l -80,40 z m 240,0 v 120 l -80,-40 v -40 z m -130,40 h 10 10 c 10,0 10,10 10,10 v 20 c 0,10 -10,10 -10,10 h -16.25 -3.75 c -10,0 -10,-10 -10,-10 v -10 -10 c 0,-10 10,-10 10,-10 z m 10,80 a 20,20 0 0 1 20,20 20,20 0 0 1 -20,20 20,20 0 0 1 -20,-20 20,20 0 0 1 20,-20 z m 0,80 a 20,20 0 0 1 20,20 20,20 0 0 1 -20,20 20,20 0 0 1 -20,-20 20,20 0 0 1 20,-20 z m 0,80 a 20,20 0 0 1 20,20 20,20 0 0 1 -20,20 20,20 0 0 1 -20,-20 20,20 0 0 1 20,-20 z" />
    <path
       style="fill-opacity:1;stroke:#000000;stroke-width:1px;stroke-linecap:butt;stroke-linejoin:miter;stroke-opacity:1"
       fill="url(#lapelGrad)"
       d="m 470.9948,190.5 80,-80 V 410.03115 C 550,420 540,420 531.62642,411.13162 L 490.9948,370.5 l -60,-60 80,-80 z"
       id="path878"
       sodipodi:nodetypes="cccccccc" />
    <path
       style="fill:url(#linearGradient906);fill-opacity:1;stroke:#000000;stroke-width:1px;stroke-linecap:butt;stroke-linejoin:miter;stroke-opacity:1"
       fill="url(#lapelGrad)"
       d="m 171.14589,330.30713 120,110 120,-110 100.0518,100.0518 c 8.9534,9.4482 8.9534,19.4482 -0.47131,19.9482 0,0 -372.4648,1.08577 -440.650285,-0.17562 C 60,450 60,440 70.105308,429.96054 Z"
       id="path880"
       sodipodi:nodetypes="cccccccc" />
    <path
       style="fill-opacity:1;stroke:#000000;stroke-width:1px;stroke-linecap:butt;stroke-linejoin:miter;stroke-opacity:1"
       fill="url(#lapelGrad)"
       d="M 30.994802,409.646 V 110.5 l 79.999998,80 -39.999998,40 79.999998,80 L 48.193655,413.30115 C 40,420 30,420 30.994802,409.646 Z"
       id="path882"
       sodipodi:nodetypes="ccccccc" />
  </g>
</svg>
